<svg width="122" height="29" viewBox="0 0 122 29" fill="none" xmlns="http://www.w3.org/2000/svg">
<g opacity="0.4">
<path d="M33.8648 15.5625C33.8648 21.8464 28.9429 26.9405 22.8714 26.9405C16.7998 26.9405 11.8779 21.8464 11.8779 15.5625C11.8779 9.27865 16.7998 4.18457 22.8714 4.18457C28.9429 4.18457 33.8648 9.27865 33.8648 15.5625Z" fill="url(#paint0_linear)"/>
<path d="M22.8714 26.9405C16.7998 26.9405 11.8779 21.8464 11.8779 15.5625C11.8779 9.27865 16.7998 4.18457 22.8714 4.18457H11.2461V26.9405H22.8714Z" fill="url(#paint1_linear)"/>
</g>
<ellipse cx="10.9934" cy="15.5625" rx="10.9934" ry="11.378" fill="url(#paint2_linear)"/>
<path d="M49.7425 22.2277C48.3307 22.2277 47.063 21.9545 45.9396 21.4079C44.8313 20.8614 43.9584 20.0947 43.3208 19.1079C42.6983 18.1211 42.3871 17.0053 42.3871 15.7604C42.3871 14.5156 42.6983 13.4073 43.3208 12.4357C43.9584 11.4489 44.8313 10.6822 45.9396 10.1357C47.063 9.58918 48.3307 9.31591 49.7425 9.31591C51.2607 9.31591 52.5587 9.64232 53.6366 10.2951C54.7144 10.9479 55.4583 11.8512 55.8682 13.005L51.8831 14.9634C51.3973 13.8703 50.6762 13.3238 49.7198 13.3238C49.1125 13.3238 48.6039 13.5364 48.194 13.9614C47.7993 14.3865 47.6019 14.9862 47.6019 15.7604C47.6019 16.5499 47.7993 17.1571 48.194 17.5822C48.6039 18.0073 49.1125 18.2198 49.7198 18.2198C50.6762 18.2198 51.3973 17.6733 51.8831 16.5802L55.8682 18.5386C55.4583 19.6924 54.7144 20.5957 53.6366 21.2485C52.5587 21.9013 51.2607 22.2277 49.7425 22.2277ZM67.8729 15.4644C69.2392 15.9806 69.9224 16.9446 69.9224 18.3565C69.9224 19.4951 69.4745 20.3908 68.5788 21.0436C67.6831 21.6812 66.3699 22 64.6392 22H57.2838V9.54364H64.2749C65.9449 9.54364 67.2429 9.83208 68.1689 10.409C69.095 10.9707 69.558 11.7677 69.558 12.8001C69.558 13.3769 69.4138 13.8931 69.1254 14.3486C68.8369 14.804 68.4194 15.1759 67.8729 15.4644ZM61.7927 14.4624H63.8195C64.5633 14.4624 64.9353 14.1664 64.9353 13.5743C64.9353 13.2859 64.8442 13.0733 64.662 12.9367C64.495 12.8001 64.2142 12.7317 63.8195 12.7317H61.7927V14.4624ZM64.1838 18.8119C64.9277 18.8119 65.2996 18.5007 65.2996 17.8782C65.2996 17.2862 64.9277 16.9901 64.1838 16.9901H61.7927V18.8119H64.1838ZM76.9113 9.31591C79.0974 9.31591 80.7674 9.80931 81.9212 10.7961C83.075 11.7677 83.6519 13.2707 83.6519 15.305V22H78.8697V20.3604C78.2776 21.6053 77.1011 22.2277 75.34 22.2277C74.3532 22.2277 73.5107 22.0607 72.8123 21.7267C72.1291 21.3776 71.6054 20.9145 71.241 20.3376C70.8919 19.7456 70.7173 19.0852 70.7173 18.3565C70.7173 17.1268 71.1879 16.1931 72.1291 15.5555C73.0704 14.9179 74.4975 14.5991 76.4103 14.5991H78.4826C78.3156 13.6274 77.5337 13.1416 76.137 13.1416C75.5753 13.1416 75.006 13.2327 74.4291 13.4149C73.8522 13.5819 73.3588 13.8172 72.9489 14.1208L71.3094 10.7278C72.0229 10.2875 72.8806 9.94594 73.8826 9.70304C74.8998 9.44496 75.9093 9.31591 76.9113 9.31591ZM76.8885 19.1307C77.2529 19.1307 77.5793 19.032 77.8677 18.8347C78.1562 18.6373 78.3687 18.3413 78.5053 17.9466V17.0812H77.2301C76.1826 17.0812 75.6588 17.4304 75.6588 18.1287C75.6588 18.4172 75.7651 18.6601 75.9776 18.8574C76.2054 19.0396 76.509 19.1307 76.8885 19.1307ZM85.749 9.54364H90.8728V15.1684L95.1767 9.54364H99.9133V22H94.7896V16.3525L90.5084 22H85.749V9.54364ZM92.4896 8.51889C90.9107 8.51889 89.7569 8.20008 89.0282 7.56246C88.2995 6.90966 87.9352 5.90009 87.9352 4.53376H91.2371C91.2371 5.03475 91.3206 5.41429 91.4876 5.67237C91.6698 5.91527 91.9962 6.03673 92.4668 6.03673C93.317 6.03673 93.742 5.53574 93.742 4.53376H97.0896C97.0896 5.90009 96.7176 6.90966 95.9737 7.56246C95.245 8.20008 94.0836 8.51889 92.4896 8.51889ZM115.684 9.54364V22H110.56V13.5515H107.44V22H102.317V9.54364H115.684Z" fill="white"/>
<defs>
<linearGradient id="paint0_linear" x1="22.5554" y1="4.18457" x2="22.5554" y2="26.9405" gradientUnits="userSpaceOnUse">
<stop stop-color="#27AE60"/>
<stop offset="1" stop-color="#27AEA6"/>
</linearGradient>
<linearGradient id="paint1_linear" x1="22.5554" y1="4.18457" x2="22.5554" y2="26.9405" gradientUnits="userSpaceOnUse">
<stop stop-color="#27AE60"/>
<stop offset="1" stop-color="#27AEA6"/>
</linearGradient>
<linearGradient id="paint2_linear" x1="10.9934" y1="4.18457" x2="10.9934" y2="26.9405" gradientUnits="userSpaceOnUse">
<stop stop-color="#27AE60"/>
<stop offset="1" stop-color="#27AEA6"/>
</linearGradient>
</defs>
</svg>
